<svg width="178.63792724609374px" height="107.77777709960937px" xmlns="http://www.w3.org/2000/svg" viewBox="160.68103637695313 21.111111450195317 178.63792724609374 107.77777709960937" style="background: rgb(253, 253, 253);" preserveAspectRatio="xMidYMid"><defs><filter id="editing-hover" x="-100%" y="-100%" width="300%" height="300%"><feFlood flood-color="rgba(28.528131689831227%,34.88279365312603%,39.89963204520089%,0)" result="flood"></feFlood><feComposite operator="in" in2="SourceAlpha" in="flood" result="shadow"></feComposite><feOffset dx="-2.3" dy="-1.5" in="SourceGraphic" result="offset-1"></feOffset><feOffset dx="2.3" dy="1.5" in="shadow" result="offset-2"></feOffset><feMerge><feMergeNode in="offset-2"></feMergeNode><feMergeNode in="offset-1"></feMergeNode></feMerge></filter></defs><g filter="url(#editing-hover)"><g transform="translate(190.69441604614258, 95.96000099182129)"><path d="M42.56-41.02L46.59 0L41.98 0L41.02-12.48L38.85-32.90L38.40-32.90L27.01-4.74L22.78-4.74L11.97-32.90L11.46-32.90L9.28-12.86L8.19 0L3.84 0L8.13-41.02L13.95-41.02L16.06-34.75L24.96-11.39L25.34-11.39L34.69-35.14L36.80-41.02L42.56-41.02ZM67.58-41.34L67.58-41.34Q72-41.34 76.74-39.42L76.74-39.42L75.90-34.50L75.01-34.24L75.01-34.24Q73.15-35.65 71.07-36.42L71.07-36.42L71.07-36.42Q68.99-37.18 66.94-37.18L66.94-37.18L66.94-37.18Q64.58-37.18 62.82-36.22L62.82-36.22L62.82-36.22Q61.06-35.26 60.13-33.73L60.13-33.73L60.13-33.73Q59.20-32.19 59.20-30.53L59.20-30.53L59.20-30.53Q59.20-28.80 60.26-27.49L60.26-27.49L60.26-27.49Q61.31-26.18 62.91-25.22L62.91-25.22L62.91-25.22Q64.51-24.26 67.26-22.91L67.26-22.91L67.26-22.91Q70.72-21.31 72.83-19.94L72.83-19.94L72.83-19.94Q74.94-18.56 76.45-16.45L76.45-16.45L76.45-16.45Q77.95-14.34 77.95-11.33L77.95-11.33L77.95-11.33Q77.95-8.13 76.22-5.44L76.22-5.44L76.22-5.44Q74.50-2.75 71.36-1.15L71.36-1.15L71.36-1.15Q68.22 0.45 64.19 0.45L64.19 0.45L64.19 0.45Q61.50 0.45 58.59-0.29L58.59-0.29L58.59-0.29Q55.68-1.02 53.18-2.43L53.18-2.43L53.82-7.68L54.53-8L54.53-8Q56.77-5.82 59.49-4.77L59.49-4.77L59.49-4.77Q62.21-3.71 64.70-3.71L64.70-3.71L64.70-3.71Q67.14-3.71 69.02-4.67L69.02-4.67L69.02-4.67Q70.91-5.63 71.90-7.23L71.90-7.23L71.90-7.23Q72.90-8.83 72.90-10.62L72.90-10.62L72.90-10.62Q72.90-13.31 70.85-14.94L70.85-14.94L70.85-14.94Q68.80-16.58 64.64-18.50L64.64-18.50L64.64-18.50Q61.25-20.16 59.20-21.47L59.20-21.47L59.20-21.47Q57.15-22.78 55.68-24.86L55.68-24.86L55.68-24.86Q54.21-26.94 54.21-29.95L54.21-29.95L54.21-29.95Q54.21-33.09 55.90-35.71L55.90-35.71L55.90-35.71Q57.60-38.34 60.64-39.84L60.64-39.84L60.64-39.84Q63.68-41.34 67.58-41.34L67.58-41.34ZM91.84-41.02L91.58-12.80L91.78 0L86.72 0L86.91-12.35L86.72-41.02L91.84-41.02ZM114.56-41.02L97.92-21.76L97.92-21.76Q106.43-10.75 115.71-1.09L115.71-1.09L115.65-0.45L115.65-0.45Q113.73 0.13 110.85 0.58L110.85 0.58L110.21 0.26L110.21 0.26Q100.10-11.20 92.54-21.50L92.54-21.50L92.54-21.89L106.24-37.44L108.80-41.02L114.56-41.02Z" fill="#000000"></path></g></g><style>text {
  font-size: 64px;
  font-family: Arial Black;
  dominant-baseline: central;
  text-anchor: middle;
}</style></svg>