<svg width="229.79274291992186px" height="143.33333435058591px" xmlns="http://www.w3.org/2000/svg" viewBox="135.10362854003907 3.3333328247070426 229.79274291992186 143.33333435058591" style="background: rgb(253, 253, 253);" preserveAspectRatio="xMidYMid"><defs><filter id="editing-hole" x="-100%" y="-100%" width="300%" height="300%"><feFlood flood-color="#ffffff" result="black"></feFlood><feMorphology operator="dilate" radius="2" in="SourceGraphic" result="erode"></feMorphology><feGaussianBlur in="erode" stdDeviation="4" result="blur"></feGaussianBlur><feOffset in="blur" dx="2" dy="2" result="offset"></feOffset><feComposite operator="atop" in="offset" in2="black" result="merge"></feComposite><feComposite operator="in" in="merge" in2="SourceGraphic" result="inner-shadow"></feComposite></filter></defs><g filter="url(#editing-hole)"><g transform="translate(172.56794619560242, 101.20999908447266)"><path d="M2.53 0L2.53-0.14L2.53-0.14Q2.92-0.70 3.41-1.81L3.41-1.81L3.41-1.81Q3.90-2.92 4.18-4.61L4.18-4.61L4.18-4.61Q4.57-7.07 5.04-10.14L5.04-10.14L5.04-10.14Q5.52-13.22 6.03-16.59L6.03-16.59L6.03-16.59Q6.54-19.97 7.05-23.50L7.05-23.50L7.05-23.50Q7.56-27.04 8.03-30.46L8.03-30.46L8.03-30.46Q8.51-33.89 8.95-37.07L8.95-37.07L8.95-37.07Q9.39-40.25 9.74-42.89L9.74-42.89L9.74-42.89Q10.09-45.53 10.32-47.48L10.32-47.48L10.32-47.48Q10.55-49.43 10.65-50.41L10.65-50.41L15.12-50.41L37.23-9.07L59.17-50.41L62.51-50.41L68.27-8.65L68.27-8.65Q68.52-6.68 68.80-5.27L68.80-5.27L68.80-5.27Q69.08-3.87 69.36-2.87L69.36-2.87L69.36-2.87Q69.64-1.86 69.91-1.21L69.91-1.21L69.91-1.21Q70.17-0.56 70.42-0.14L70.42-0.14L70.42 0L61.56 0L61.56-0.14L61.56-0.14Q61.73-0.53 61.89-1.41L61.89-1.41L61.89-1.41Q62.05-2.29 62.05-3.52L62.05-3.52L62.05-3.52Q62.05-3.97 62.02-4.45L62.02-4.45L62.02-4.45Q61.98-4.92 61.91-5.48L61.91-5.48L57.45-39.16L36.70-0.14L34.28-0.42L13.39-39.52L13.39-39.52Q12.16-31.18 11.25-24.12L11.25-24.12L11.25-24.12Q10.86-21.09 10.48-18.09L10.48-18.09L10.48-18.09Q10.09-15.08 9.79-12.48L9.79-12.48L9.79-12.48Q9.49-9.88 9.32-7.89L9.32-7.89L9.32-7.89Q9.14-5.91 9.14-4.96L9.14-4.96L9.14-4.96Q9.14-3.76 9.21-2.85L9.21-2.85L9.21-2.85Q9.28-1.93 9.35-1.30L9.35-1.30L9.35-1.30Q9.46-0.56 9.56 0L9.56 0L2.53 0ZM99.60-48.97L99.35-42.40L98.58-42.40L98.58-42.40Q98.30-43.21 97.68-44.23L97.68-44.23L97.68-44.23Q97.07-45.25 96.06-46.14L96.06-46.14L96.06-46.14Q95.06-47.04 93.64-47.64L93.64-47.64L93.64-47.64Q92.21-48.23 90.28-48.23L90.28-48.23L90.28-48.23Q88.56-48.23 87.22-47.71L87.22-47.71L87.22-47.71Q85.89-47.18 84.99-46.23L84.99-46.23L84.99-46.23Q84.09-45.28 83.64-43.98L83.64-43.98L83.64-43.98Q83.18-42.68 83.18-41.10L83.18-41.10L83.18-41.10Q83.18-38.57 84.60-36.26L84.60-36.26L84.60-36.26Q86.03-33.96 88.17-31.71L88.17-31.71L88.17-31.71Q90.32-29.46 92.81-27.21L92.81-27.21L92.81-27.21Q95.31-24.96 97.45-22.54L97.45-22.54L97.45-22.54Q99.60-20.11 101.02-17.46L101.02-17.46L101.02-17.46Q102.45-14.80 102.45-11.74L102.45-11.74L102.45-11.74Q102.45-9.46 101.65-7.15L101.65-7.15L101.65-7.15Q100.86-4.85 99.21-3.02L99.21-3.02L99.21-3.02Q97.56-1.20 94.96-0.05L94.96-0.05L94.96-0.05Q92.36 1.09 88.77 1.09L88.77 1.09L88.77 1.09Q86.77 1.09 84.96 0.72L84.96 0.72L84.96 0.72Q83.14 0.35 81.62-0.19L81.62-0.19L81.62-0.19Q80.09-0.74 78.87-1.37L78.87-1.37L78.87-1.37Q77.66-2.00 76.89-2.53L76.89-2.53L77.70-10.30L78.57-10.30L78.57-10.30Q78.96-8.65 79.84-7.15L79.84-7.15L79.84-7.15Q80.72-5.66 82.00-4.52L82.00-4.52L82.00-4.52Q83.29-3.38 84.94-2.69L84.94-2.69L84.94-2.69Q86.59-2.00 88.56-2.00L88.56-2.00L88.56-2.00Q90.35-2.00 91.78-2.55L91.78-2.55L91.78-2.55Q93.20-3.09 94.22-4.06L94.22-4.06L94.22-4.06Q95.24-5.03 95.78-6.36L95.78-6.36L95.78-6.36Q96.33-7.70 96.33-9.28L96.33-9.28L96.33-9.28Q96.33-11.50 95.52-13.38L95.52-13.38L95.52-13.38Q94.71-15.26 93.39-16.95L93.39-16.95L93.39-16.95Q92.07-18.63 90.40-20.21L90.40-20.21L90.40-20.21Q88.73-21.80 86.98-23.40L86.98-23.40L86.98-23.40Q85.22-25.00 83.55-26.68L83.55-26.68L83.55-26.68Q81.88-28.37 80.56-30.29L80.56-30.29L80.56-30.29Q79.24-32.20 78.43-34.40L78.43-34.40L78.43-34.40Q77.63-36.60 77.63-39.23L77.63-39.23L77.63-39.23Q77.63-42.01 78.70-44.24L78.70-44.24L78.70-44.24Q79.77-46.48 81.54-48.06L81.54-48.06L81.54-48.06Q83.32-49.64 85.57-50.48L85.57-50.48L85.57-50.48Q87.82-51.33 90.21-51.33L90.21-51.33L90.21-51.33Q91.97-51.33 93.45-51.05L93.45-51.05L93.45-51.05Q94.92-50.77 96.10-50.38L96.10-50.38L96.10-50.38Q97.28-49.99 98.16-49.61L98.16-49.61L98.16-49.61Q99.04-49.22 99.60-48.97L99.60-48.97ZM111.09 0L111.09-0.14L111.09-0.14Q111.30-0.88 111.50-1.97L111.50-1.97L111.50-1.97Q111.69-3.06 111.83-4.68L111.83-4.68L111.83-4.68Q111.97-6.29 112.04-8.53L112.04-8.53L112.04-8.53Q112.11-10.76 112.11-13.75L112.11-13.75L112.11-36.63L112.11-36.63Q112.11-39.62 112.04-41.85L112.04-41.85L112.04-41.85Q111.97-44.09 111.83-45.72L111.83-45.72L111.83-45.72Q111.69-47.36 111.50-48.45L111.50-48.45L111.50-48.45Q111.30-49.54 111.09-50.27L111.09-50.27L111.09-50.41L119.53-50.41L119.53-50.27L119.53-50.27Q119.32-49.54 119.13-48.45L119.13-48.45L119.13-48.45Q118.93-47.36 118.81-45.72L118.81-45.72L118.81-45.72Q118.69-44.09 118.60-41.85L118.60-41.85L118.60-41.85Q118.51-39.62 118.51-36.63L118.51-36.63L118.51-28.79L139.04-45.56L139.04-45.56Q142.49-48.38 142.49-50.41L142.49-50.41L152.37-50.41L152.37-50.27L152.37-50.27Q150.29-49.78 148.17-48.39L148.17-48.39L148.17-48.39Q146.04-47.00 143.65-45L143.65-45L125.51-29.81L147.34-5.84L147.34-5.84Q148.71-4.43 149.68-3.50L149.68-3.50L149.68-3.50Q150.64-2.57 151.38-1.95L151.38-1.95L151.38-1.95Q152.12-1.34 152.74-0.93L152.74-0.93L152.74-0.93Q153.35-0.53 154.02-0.14L154.02-0.14L154.02 0L143.72 0L143.72 0Q143.58-0.32 143.24-0.81L143.24-0.81L143.24-0.81Q142.91-1.30 142.47-1.83L142.47-1.83L142.47-1.83Q142.03-2.36 141.52-2.92L141.52-2.92L141.52-2.92Q141.01-3.48 140.55-3.97L140.55-3.97L118.51-28.16L118.51-13.75L118.51-13.75Q118.51-10.76 118.60-8.53L118.60-8.53L118.60-8.53Q118.69-6.29 118.81-4.68L118.81-4.68L118.81-4.68Q118.93-3.06 119.13-1.97L119.13-1.97L119.13-1.97Q119.32-0.88 119.53-0.14L119.53-0.14L119.53 0L111.09 0Z" fill="#ffffff"></path></g></g><style>text {
  font-size: 64px;
  font-family: Arial Black;
  dominant-baseline: central;
  text-anchor: middle;
}</style></svg>